<svg width="200" height="200" viewBox="0 0 200 200" fill="none" xmlns="http://www.w3.org/2000/svg">
<path d="M33.333 74.9999V49.9999C33.333 45.5796 35.089 41.3404 38.2146 38.2148C41.3402 35.0892 45.5794 33.3333 49.9997 33.3333H74.9997M166.666 125V150C166.666 154.42 164.91 158.659 161.785 161.785C158.659 164.911 154.42 166.667 150 166.667H125M125 33.3333H150C154.42 33.3333 158.659 35.0892 161.785 38.2148C164.91 41.3404 166.666 45.5796 166.666 49.9999V74.9999M74.9997 166.667H49.9997C45.5794 166.667 41.3402 164.911 38.2146 161.785C35.089 158.659 33.333 154.42 33.333 150V125" stroke="black" stroke-width="3.33333" stroke-linecap="round" stroke-linejoin="round"/>
</svg>
